# xmcd
#
# Track frame offsets: 
#        150
#        16303
#        30912
#        45450
#        55020
#        76083
#        93848
#        111008
#        121963
#        137093
#        150868
#        165148
#        182593
#
# Disc length: 2762 seconds
#
# Revision: 2
# Processed by: cddbd v1.5.2PL0 Copyright (c) Steve Scherf et al.
# Submitted via: ExactAudioCopy v1.0b3
#
DISCID=7f0ac80d
DTITLE=Jack Johnson - Brushfire Fairytales
DYEAR=2000
DGENRE=Blues
TTITLE0=Inaudible Melodies
TTITLE1=Middle Man
TTITLE2=Posters
TTITLE3=Sexy Plexi
TTITLE4=Flake
TTITLE5=Bubble Toes
TTITLE6=Fortunate Fool
TTITLE7=The News
TTITLE8=Drink the Water
TTITLE9=Mudfootball (for Moe Lerner)
TTITLE10=F-Stop Blues
TTITLE11=Losing Hope
TTITLE12=It's All Understood
EXTD=
EXTT0=
EXTT1=
EXTT2=
EXTT3=
EXTT4=
EXTT5=
EXTT6=
EXTT7=
EXTT8=
EXTT9=
EXTT10=
EXTT11=
EXTT12=
PLAYORDER=
